<svg width="277" height="134" viewBox="0 0 277 134" fill="none" xmlns="http://www.w3.org/2000/svg">
<path d="M3.68 98.92C3.41333 98.92 3.2 98.84 3.04 98.68C2.88 98.52 2.8 98.3067 2.8 98.04V96.52C2.8 96.2533 2.88 96.04 3.04 95.88C3.2 95.6933 3.41333 95.6 3.68 95.6H5.2C5.46667 95.6 5.68 95.6933 5.84 95.88C6.02667 96.04 6.12 96.2533 6.12 96.52V98.04C6.12 98.3067 6.02667 98.52 5.84 98.68C5.68 98.84 5.46667 98.92 5.2 98.92H3.68ZM4.12 124C3.85333 124 3.64 123.92 3.48 123.76C3.32 123.6 3.24 123.387 3.24 123.12V104.08C3.24 103.813 3.32 103.6 3.48 103.44C3.64 103.28 3.85333 103.2 4.12 103.2H4.8C5.06667 103.2 5.28 103.28 5.44 103.44C5.6 103.6 5.68 103.813 5.68 104.08V123.12C5.68 123.387 5.6 123.6 5.44 123.76C5.28 123.92 5.06667 124 4.8 124H4.12ZM135.715 124.4C133.635 124.4 131.821 124.067 130.275 123.4C128.755 122.707 127.581 121.813 126.755 120.72C125.955 119.627 125.528 118.453 125.475 117.2C125.475 116.987 125.555 116.8 125.715 116.64C125.875 116.48 126.075 116.4 126.315 116.4H127.115C127.595 116.4 127.888 116.667 127.995 117.2C128.181 118.48 128.915 119.6 130.195 120.56C131.475 121.52 133.315 122 135.715 122C138.248 122 140.128 121.547 141.355 120.64C142.608 119.707 143.235 118.413 143.235 116.76C143.235 115.747 142.928 114.92 142.315 114.28C141.728 113.613 140.861 113.04 139.715 112.56C138.568 112.053 136.835 111.427 134.515 110.68C132.461 110.013 130.848 109.36 129.675 108.72C128.528 108.08 127.675 107.293 127.115 106.36C126.555 105.427 126.275 104.24 126.275 102.8C126.275 101.44 126.635 100.213 127.355 99.12C128.101 98.0267 129.168 97.1733 130.555 96.56C131.941 95.92 133.595 95.6 135.515 95.6C137.488 95.6 139.181 95.96 140.595 96.68C142.008 97.3733 143.075 98.2667 143.795 99.36C144.515 100.427 144.901 101.507 144.955 102.6C144.955 102.813 144.875 103 144.715 103.16C144.581 103.32 144.381 103.4 144.115 103.4H143.315C143.128 103.4 142.941 103.347 142.755 103.24C142.568 103.107 142.461 102.893 142.435 102.6C142.275 101.267 141.555 100.173 140.275 99.32C139.021 98.44 137.435 98 135.515 98C133.461 98 131.821 98.4 130.595 99.2C129.395 100 128.795 101.2 128.795 102.8C128.795 103.84 129.061 104.707 129.595 105.4C130.155 106.067 130.981 106.653 132.075 107.16C133.168 107.64 134.781 108.227 136.915 108.92C139.101 109.613 140.808 110.28 142.035 110.92C143.261 111.56 144.181 112.333 144.795 113.24C145.435 114.147 145.755 115.32 145.755 116.76C145.755 119.16 144.861 121.04 143.075 122.4C141.288 123.733 138.835 124.4 135.715 124.4ZM158.733 124.4C156.2 124.4 154.16 123.573 152.613 121.92C151.067 120.24 150.187 118 149.973 115.2L149.933 113.6L149.973 112C150.187 109.227 151.053 107 152.573 105.32C154.12 103.64 156.173 102.8 158.733 102.8C161.507 102.8 163.667 103.72 165.213 105.56C166.787 107.4 167.573 109.92 167.573 113.12V113.72C167.573 113.987 167.48 114.2 167.293 114.36C167.133 114.52 166.92 114.6 166.653 114.6H152.413V115C152.467 116.253 152.747 117.427 153.253 118.52C153.787 119.587 154.52 120.453 155.453 121.12C156.387 121.76 157.48 122.08 158.733 122.08C160.2 122.08 161.387 121.8 162.293 121.24C163.227 120.653 163.893 120.067 164.293 119.48C164.533 119.16 164.707 118.96 164.813 118.88C164.947 118.8 165.173 118.76 165.493 118.76H166.133C166.373 118.76 166.573 118.827 166.733 118.96C166.893 119.093 166.973 119.267 166.973 119.48C166.973 120.04 166.613 120.72 165.893 121.52C165.2 122.293 164.227 122.973 162.973 123.56C161.72 124.12 160.307 124.4 158.733 124.4ZM165.133 112.36V112.2C165.133 110.147 164.547 108.453 163.373 107.12C162.227 105.787 160.68 105.12 158.733 105.12C156.787 105.12 155.24 105.787 154.093 107.12C152.973 108.453 152.413 110.147 152.413 112.2V112.36H165.133ZM173.729 124C173.463 124 173.249 123.92 173.089 123.76C172.929 123.6 172.849 123.387 172.849 123.12V104.12C172.849 103.853 172.929 103.64 173.089 103.48C173.249 103.293 173.463 103.2 173.729 103.2H174.369C174.636 103.2 174.849 103.293 175.009 103.48C175.196 103.64 175.289 103.853 175.289 104.12V105.96C176.249 104.12 178.063 103.2 180.729 103.2H182.209C182.476 103.2 182.689 103.28 182.849 103.44C183.009 103.6 183.089 103.813 183.089 104.08V104.64C183.089 104.907 183.009 105.12 182.849 105.28C182.689 105.44 182.476 105.52 182.209 105.52H180.489C178.889 105.52 177.623 105.987 176.689 106.92C175.756 107.853 175.289 109.12 175.289 110.72V123.12C175.289 123.387 175.196 123.6 175.009 123.76C174.849 123.92 174.636 124 174.369 124H173.729ZM193.916 124C193.169 124 192.662 123.667 192.396 123L185.036 104.44L184.956 104C184.956 103.787 185.036 103.6 185.196 103.44C185.356 103.28 185.542 103.2 185.756 103.2H186.596C186.836 103.2 187.022 103.267 187.156 103.4C187.316 103.533 187.422 103.667 187.476 103.8L194.236 121.08L200.996 103.8C201.049 103.667 201.142 103.533 201.276 103.4C201.436 103.267 201.636 103.2 201.876 103.2H202.716C202.929 103.2 203.116 103.28 203.276 103.44C203.436 103.6 203.516 103.787 203.516 104L203.436 104.44L196.076 123C195.809 123.667 195.302 124 194.556 124H193.916ZM208.641 98.92C208.374 98.92 208.161 98.84 208.001 98.68C207.841 98.52 207.761 98.3067 207.761 98.04V96.52C207.761 96.2533 207.841 96.04 208.001 95.88C208.161 95.6933 208.374 95.6 208.641 95.6H210.161C210.428 95.6 210.641 95.6933 210.801 95.88C210.988 96.04 211.081 96.2533 211.081 96.52V98.04C211.081 98.3067 210.988 98.52 210.801 98.68C210.641 98.84 210.428 98.92 210.161 98.92H208.641ZM209.081 124C208.814 124 208.601 123.92 208.441 123.76C208.281 123.6 208.201 123.387 208.201 123.12V104.08C208.201 103.813 208.281 103.6 208.441 103.44C208.601 103.28 208.814 103.2 209.081 103.2H209.761C210.028 103.2 210.241 103.28 210.401 103.44C210.561 103.6 210.641 103.813 210.641 104.08V123.12C210.641 123.387 210.561 123.6 210.401 123.76C210.241 123.92 210.028 124 209.761 124H209.081ZM224.987 124.4C222.214 124.4 220.067 123.6 218.547 122C217.027 120.373 216.227 118.107 216.147 115.2L216.107 113.6L216.147 112C216.227 109.093 217.027 106.84 218.547 105.24C220.067 103.613 222.214 102.8 224.987 102.8C226.747 102.8 228.241 103.12 229.467 103.76C230.721 104.373 231.654 105.173 232.267 106.16C232.881 107.12 233.214 108.12 233.267 109.16C233.294 109.4 233.214 109.613 233.027 109.8C232.841 109.96 232.627 110.04 232.387 110.04H231.827C231.561 110.04 231.361 109.987 231.227 109.88C231.121 109.747 231.001 109.52 230.867 109.2C230.334 107.733 229.587 106.693 228.627 106.08C227.667 105.44 226.454 105.12 224.987 105.12C223.067 105.12 221.534 105.707 220.387 106.88C219.267 108.027 218.667 109.8 218.587 112.2L218.547 113.6L218.587 115C218.667 117.4 219.267 119.187 220.387 120.36C221.534 121.507 223.067 122.08 224.987 122.08C226.454 122.08 227.667 121.773 228.627 121.16C229.587 120.52 230.334 119.467 230.867 118C231.001 117.68 231.121 117.467 231.227 117.36C231.361 117.227 231.561 117.16 231.827 117.16H232.387C232.627 117.16 232.841 117.253 233.027 117.44C233.214 117.6 233.294 117.8 233.267 118.04C233.214 119.08 232.881 120.093 232.267 121.08C231.654 122.04 230.721 122.84 229.467 123.48C228.241 124.093 226.747 124.4 224.987 124.4ZM246.273 124.4C243.739 124.4 241.699 123.573 240.153 121.92C238.606 120.24 237.726 118 237.513 115.2L237.473 113.6L237.513 112C237.726 109.227 238.593 107 240.113 105.32C241.659 103.64 243.713 102.8 246.273 102.8C249.046 102.8 251.206 103.72 252.753 105.56C254.326 107.4 255.113 109.92 255.113 113.12V113.72C255.113 113.987 255.019 114.2 254.833 114.36C254.673 114.52 254.459 114.6 254.193 114.6H239.953V115C240.006 116.253 240.286 117.427 240.793 118.52C241.326 119.587 242.059 120.453 242.993 121.12C243.926 121.76 245.019 122.08 246.273 122.08C247.739 122.08 248.926 121.8 249.833 121.24C250.766 120.653 251.433 120.067 251.833 119.48C252.073 119.16 252.246 118.96 252.353 118.88C252.486 118.8 252.713 118.76 253.033 118.76H253.673C253.913 118.76 254.113 118.827 254.273 118.96C254.433 119.093 254.513 119.267 254.513 119.48C254.513 120.04 254.153 120.72 253.433 121.52C252.739 122.293 251.766 122.973 250.513 123.56C249.259 124.12 247.846 124.4 246.273 124.4ZM252.673 112.36V112.2C252.673 110.147 252.086 108.453 250.913 107.12C249.766 105.787 248.219 105.12 246.273 105.12C244.326 105.12 242.779 105.787 241.633 107.12C240.513 108.453 239.953 110.147 239.953 112.2V112.36H252.673ZM266.988 124.4C265.255 124.4 263.788 124.107 262.588 123.52C261.415 122.933 260.522 122.267 259.908 121.52C259.322 120.773 259.028 120.173 259.028 119.72C259.028 119.48 259.122 119.293 259.308 119.16C259.495 119 259.695 118.92 259.908 118.92H260.508C260.695 118.92 260.842 118.96 260.948 119.04C261.082 119.093 261.228 119.227 261.388 119.44C261.975 120.267 262.682 120.92 263.508 121.4C264.362 121.853 265.522 122.08 266.988 122.08C268.642 122.08 269.975 121.773 270.988 121.16C272.002 120.52 272.508 119.613 272.508 118.44C272.508 117.72 272.295 117.133 271.868 116.68C271.468 116.227 270.802 115.84 269.868 115.52C268.962 115.173 267.602 114.787 265.788 114.36C263.415 113.827 261.788 113.093 260.908 112.16C260.055 111.227 259.628 110.04 259.628 108.6C259.628 107.613 259.895 106.68 260.428 105.8C260.988 104.92 261.802 104.2 262.868 103.64C263.962 103.08 265.268 102.8 266.788 102.8C268.388 102.8 269.735 103.08 270.828 103.64C271.948 104.173 272.775 104.8 273.308 105.52C273.868 106.24 274.148 106.827 274.148 107.28C274.148 107.52 274.055 107.72 273.868 107.88C273.708 108.013 273.508 108.08 273.268 108.08H272.668C272.295 108.08 272.002 107.907 271.788 107.56C271.255 106.76 270.642 106.16 269.948 105.76C269.282 105.333 268.228 105.12 266.788 105.12C265.242 105.12 264.068 105.44 263.268 106.08C262.468 106.72 262.068 107.56 262.068 108.6C262.068 109.24 262.228 109.773 262.548 110.2C262.868 110.627 263.468 111.027 264.348 111.4C265.228 111.747 266.508 112.107 268.188 112.48C270.668 113.04 272.415 113.787 273.428 114.72C274.442 115.653 274.948 116.893 274.948 118.44C274.948 119.533 274.642 120.533 274.028 121.44C273.415 122.347 272.508 123.067 271.308 123.6C270.108 124.133 268.668 124.4 266.988 124.4Z" fill="white"/>
<path d="M12.7063 124C12.4129 124 12.1729 123.907 11.9863 123.72C11.7996 123.533 11.7063 123.293 11.7063 123V97C11.7063 96.7067 11.7996 96.4667 11.9863 96.28C12.1996 96.0933 12.4396 96 12.7063 96H17.8663C18.1596 96 18.3996 96.0933 18.5863 96.28C18.7996 96.4667 18.9062 96.7067 18.9062 97V106.64H28.7463V97C28.7463 96.7067 28.8396 96.4667 29.0263 96.28C29.2129 96.0933 29.4529 96 29.7463 96H34.9063C35.1996 96 35.4396 96.0933 35.6263 96.28C35.8129 96.4667 35.9063 96.7067 35.9063 97V123C35.9063 123.293 35.8129 123.533 35.6263 123.72C35.4396 123.907 35.1996 124 34.9063 124H29.7463C29.4529 124 29.2129 123.907 29.0263 123.72C28.8396 123.533 28.7463 123.293 28.7463 123V113.04H18.9062V123C18.9062 123.293 18.7996 123.533 18.5863 123.72C18.3996 123.907 18.1596 124 17.8663 124H12.7063ZM50.9109 124.4C47.6043 124.4 45.0576 123.613 43.2709 122.04C41.4843 120.467 40.5109 118.253 40.3509 115.4C40.3243 115.053 40.3109 114.453 40.3109 113.6C40.3109 112.747 40.3243 112.147 40.3509 111.8C40.5109 108.973 41.5109 106.773 43.3509 105.2C45.1909 103.6 47.7109 102.8 50.9109 102.8C54.1376 102.8 56.6709 103.6 58.5109 105.2C60.3509 106.773 61.3509 108.973 61.5109 111.8C61.5376 112.147 61.5509 112.747 61.5509 113.6C61.5509 114.453 61.5376 115.053 61.5109 115.4C61.3509 118.253 60.3776 120.467 58.5909 122.04C56.8043 123.613 54.2443 124.4 50.9109 124.4ZM50.9109 119.52C52.0843 119.52 52.9509 119.173 53.5109 118.48C54.0709 117.76 54.3909 116.667 54.4709 115.2C54.4976 114.933 54.5109 114.4 54.5109 113.6C54.5109 112.8 54.4976 112.267 54.4709 112C54.3909 110.56 54.0576 109.48 53.4709 108.76C52.9109 108.04 52.0576 107.68 50.9109 107.68C48.6976 107.68 47.5243 109.12 47.3909 112L47.3509 113.6L47.3909 115.2C47.4443 116.667 47.7509 117.76 48.3109 118.48C48.8976 119.173 49.7643 119.52 50.9109 119.52ZM66.5241 124C66.2307 124 65.9907 123.907 65.8041 123.72C65.6174 123.533 65.5241 123.293 65.5241 123V104.2C65.5241 103.907 65.6174 103.667 65.8041 103.48C65.9907 103.293 66.2307 103.2 66.5241 103.2H70.8841C71.1774 103.2 71.4174 103.293 71.6041 103.48C71.7907 103.667 71.8841 103.907 71.8841 104.2V105.56C72.4974 104.76 73.3107 104.107 74.3241 103.6C75.3641 103.067 76.5241 102.8 77.8041 102.8C80.7374 102.8 82.7641 103.947 83.8841 106.24C84.5241 105.227 85.4174 104.4 86.5641 103.76C87.7107 103.12 88.9374 102.8 90.2441 102.8C92.4307 102.8 94.2041 103.547 95.5641 105.04C96.9507 106.507 97.6441 108.707 97.6441 111.64V123C97.6441 123.267 97.5507 123.507 97.3641 123.72C97.1774 123.907 96.9374 124 96.6441 124H92.0041C91.7107 124 91.4574 123.907 91.2441 123.72C91.0574 123.533 90.9641 123.293 90.9641 123V111.92C90.9641 110.587 90.6841 109.627 90.1241 109.04C89.5907 108.453 88.8574 108.16 87.9241 108.16C87.0707 108.16 86.3641 108.467 85.8041 109.08C85.2441 109.667 84.9641 110.613 84.9641 111.92V123C84.9641 123.267 84.8707 123.507 84.6841 123.72C84.4974 123.907 84.2574 124 83.9641 124H79.3241C79.0307 124 78.7907 123.907 78.6041 123.72C78.4174 123.533 78.3241 123.293 78.3241 123V111.92C78.3241 110.613 78.0307 109.667 77.4441 109.08C76.8841 108.467 76.1641 108.16 75.2841 108.16C74.4307 108.16 73.7107 108.467 73.1241 109.08C72.5641 109.667 72.2841 110.6 72.2841 111.88V123C72.2841 123.267 72.1907 123.507 72.0041 123.72C71.8174 123.907 71.5774 124 71.2841 124H66.5241ZM111.765 124.4C108.565 124.4 106.045 123.533 104.205 121.8C102.365 120.067 101.405 117.547 101.325 114.24V112.84C101.431 109.693 102.405 107.24 104.245 105.48C106.111 103.693 108.605 102.8 111.725 102.8C113.991 102.8 115.898 103.267 117.445 104.2C119.018 105.107 120.191 106.36 120.965 107.96C121.765 109.56 122.165 111.4 122.165 113.48V114.44C122.165 114.707 122.071 114.947 121.885 115.16C121.698 115.347 121.458 115.44 121.165 115.44H108.365V115.72C108.418 116.973 108.725 117.987 109.285 118.76C109.845 119.533 110.658 119.92 111.725 119.92C112.391 119.92 112.938 119.787 113.365 119.52C113.791 119.227 114.178 118.88 114.525 118.48C114.765 118.187 114.951 118.013 115.085 117.96C115.245 117.88 115.485 117.84 115.805 117.84H120.765C121.005 117.84 121.205 117.92 121.365 118.08C121.551 118.213 121.645 118.4 121.645 118.64C121.645 119.333 121.245 120.133 120.445 121.04C119.671 121.947 118.538 122.733 117.045 123.4C115.551 124.067 113.791 124.4 111.765 124.4ZM115.125 111.48V111.4C115.125 110.093 114.818 109.067 114.205 108.32C113.618 107.547 112.791 107.16 111.725 107.16C110.685 107.16 109.858 107.547 109.245 108.32C108.658 109.067 108.365 110.093 108.365 111.4V111.48H115.125Z" fill="#143656"/>
<g clip-path="url(#clip0)">
<path d="M164.109 67.8079L156.383 60.082C157.977 57.6761 158.917 54.8017 158.917 51.7083C158.917 43.3225 152.094 36.5 143.708 36.5C135.322 36.5 128.5 43.3225 128.5 51.7083C128.5 60.0942 135.322 66.9167 143.708 66.9167C146.802 66.9167 149.676 65.9768 152.082 64.383L159.808 72.1088C160.997 73.2981 162.92 73.2981 164.109 72.1088C165.298 70.9195 165.298 68.9972 164.109 67.8079ZM143.708 60.8333C138.677 60.8333 134.583 56.7393 134.583 51.7083C134.583 46.6774 138.677 42.5833 143.708 42.5833C148.739 42.5833 152.833 46.6774 152.833 51.7083C152.833 56.7393 148.739 60.8333 143.708 60.8333Z" fill="#143656"/>
<path d="M154.503 28.6768L143.708 18.1222V6.08333C143.708 4.40433 142.349 3.04167 140.667 3.04167C138.985 3.04167 137.625 4.40433 137.625 6.08333V12.1727L126.064 0.866875C124.88 -0.288958 122.992 -0.288958 121.811 0.866875L93.3718 28.6768C92.4867 29.5407 92 30.6995 92 31.9375C92 34.453 94.047 36.5 96.5625 36.5H101.125V53.2292C101.125 57.4206 104.535 60.8333 108.729 60.8333H119.375C121.057 60.8333 122.417 59.4707 122.417 57.7917C122.417 56.1127 121.057 54.75 119.375 54.75H108.729C107.893 54.75 107.208 54.0687 107.208 53.2292V33.4583C107.208 31.7793 105.849 30.4167 104.167 30.4167H100.295L123.938 7.29392L150.248 33.0234C151.452 34.2035 153.381 34.1762 154.549 32.9747C155.726 31.7763 155.702 29.8509 154.503 28.6768Z" fill="white"/>
</g>
<defs>
<clipPath id="clip0">
<rect width="73" height="73" fill="white" transform="translate(92)"/>
</clipPath>
</defs>
</svg>
