<svg width="646" height="646" viewBox="0 0 646 646" fill="none" xmlns="http://www.w3.org/2000/svg">
<g clip-path="url(#clip0)">
<path d="M638.113 600.054L569.745 531.685C583.849 510.394 592.166 484.958 592.166 457.583C592.166 383.374 531.792 323 457.583 323C383.374 323 323 383.374 323 457.583C323 531.793 383.374 592.167 457.583 592.167C484.957 592.167 510.394 583.85 531.685 569.745L600.053 638.114C610.577 648.638 627.589 648.638 638.113 638.114C648.638 627.589 648.638 610.578 638.113 600.054ZM457.583 538.334C413.063 538.334 376.833 502.104 376.833 457.583C376.833 413.063 413.063 376.833 457.583 376.833C502.103 376.833 538.333 413.063 538.333 457.583C538.333 502.104 502.103 538.334 457.583 538.334Z" fill="#143656"/>
<path d="M553.111 253.77L457.584 160.369V53.8333C457.584 38.9753 445.552 26.9166 430.667 26.9166C415.782 26.9166 403.75 38.9753 403.75 53.8333V107.72L301.44 7.67124C290.969 -2.55708 274.254 -2.55708 263.81 7.67124L12.1394 253.77C4.30667 261.414 0 271.67 0 282.625C0 304.885 18.1149 323 40.375 323H80.7501V471.041C80.7501 508.132 110.924 538.333 148.042 538.333H242.25C257.135 538.333 269.167 526.274 269.167 511.416C269.167 496.558 257.135 484.5 242.25 484.5H148.042C140.64 484.5 134.583 478.47 134.583 471.041V296.083C134.583 281.225 122.552 269.166 107.667 269.166H73.4018L282.625 64.5461L515.455 292.234C526.114 302.678 543.179 302.435 553.515 291.803C563.931 281.198 563.716 264.16 553.111 253.77Z" fill="white"/>
</g>
<defs>
<clipPath id="clip0">
<rect width="646" height="646" fill="white"/>
</clipPath>
</defs>
</svg>
